<svg width="41" height="41" viewBox="0 0 41 41" fill="none" xmlns="http://www.w3.org/2000/svg">
<path d="M0 41L2.89571 30.4715C1.10885 27.3897 0.169932 23.8962 0.171649 20.3138C0.176798 9.11396 9.33425 0 20.5858 0C26.046 0.00170833 31.1714 2.11833 35.0266 5.95867C38.8801 9.799 41.0017 14.9035 41 20.3326C40.9948 31.5341 31.8374 40.6481 20.5858 40.6481C17.17 40.6464 13.804 39.7939 10.8224 38.1744L0 41ZM11.3237 34.4964C14.2005 36.1962 16.9469 37.2143 20.579 37.216C29.9304 37.216 37.5481 29.6413 37.5533 20.3292C37.5567 10.9983 29.975 3.43375 20.5927 3.43033C11.2344 3.43033 3.62179 11.0051 3.61835 20.3155C3.61664 24.1165 4.73579 26.9626 6.61534 29.9402L4.90057 36.1722L11.3237 34.4964ZM30.8693 25.162C30.7423 24.9502 30.4024 24.8238 29.8909 24.5693C29.3811 24.3147 26.8733 23.0864 26.4047 22.9173C25.9378 22.7482 25.598 22.6628 25.2564 23.1718C24.9165 23.6792 23.9381 24.8238 23.6412 25.162C23.3442 25.5003 23.0455 25.543 22.5357 25.2885C22.026 25.0339 20.3816 24.4992 18.4333 22.7687C16.9177 21.4225 15.8929 19.7603 15.596 19.2512C15.299 18.7438 15.5651 18.4688 15.8191 18.216C16.0491 17.9888 16.3289 17.6232 16.5847 17.3259C16.8439 17.0321 16.928 16.8203 17.0996 16.4803C17.2696 16.142 17.1855 15.8448 17.0567 15.5903C16.928 15.3374 15.9084 12.8381 15.4844 11.8217C15.069 10.8325 14.6485 10.9658 14.3361 10.9504L13.3577 10.9333C13.0178 10.9333 12.4651 11.0597 11.9982 11.5688C11.5314 12.0779 10.2131 13.3045 10.2131 15.8038C10.2131 18.3031 12.0412 20.717 12.2952 21.0552C12.5509 21.3935 15.8912 26.5219 21.0081 28.7205C22.2251 29.2433 23.176 29.5559 23.9158 29.7899C25.1379 30.176 26.2502 30.1213 27.1291 29.9915C28.1092 29.8463 30.1467 28.7632 30.5723 27.5776C30.998 26.3903 30.998 25.3739 30.8693 25.162Z" fill="white"/>
</svg>
